<mxfile>
    <diagram id="NhChNSMnNEKqA0ds_UGz" name="Page-1">
        <mxGraphModel dx="1035" dy="1997" grid="1" gridSize="10" guides="1" tooltips="1" connect="1" arrows="1" fold="1" page="1" pageScale="1" pageWidth="827" pageHeight="1169" background="#333333" math="0" shadow="0">
            <root>
                <mxCell id="0"/>
                <mxCell id="1" parent="0"/>
                <mxCell id="2" value="&amp;nbsp;ISANv2 QUAD (RIGHT)&lt;br&gt;" style="rounded=0;whiteSpace=wrap;html=1;align=left;verticalAlign=top;dashed=1;strokeWidth=2;fillColor=none;fontColor=#FFFFFF;" parent="1" vertex="1">
                    <mxGeometry x="70" y="130" width="460" height="210" as="geometry"/>
                </mxCell>
                <mxCell id="7" value="Receiver A" style="ellipse;whiteSpace=wrap;html=1;aspect=fixed;align=center;fillColor=#6d8764;strokeColor=#3A5431;fontColor=#ffffff;" parent="1" vertex="1">
                    <mxGeometry x="80" y="160" width="80" height="80" as="geometry"/>
                </mxCell>
                <mxCell id="8" value="Receiver B" style="ellipse;whiteSpace=wrap;html=1;aspect=fixed;align=center;fillColor=#6d8764;strokeColor=#3A5431;fontColor=#ffffff;" parent="1" vertex="1">
                    <mxGeometry x="170" y="160" width="80" height="80" as="geometry"/>
                </mxCell>
                <mxCell id="15" value="Receiver C" style="ellipse;whiteSpace=wrap;html=1;aspect=fixed;align=center;fillColor=#6d8764;strokeColor=#3A5431;fontColor=#ffffff;" parent="1" vertex="1">
                    <mxGeometry x="80" y="250" width="80" height="80" as="geometry"/>
                </mxCell>
                <mxCell id="16" value="Receiver D" style="ellipse;whiteSpace=wrap;html=1;aspect=fixed;align=center;fillColor=#6d8764;strokeColor=#3A5431;fontColor=#ffffff;" parent="1" vertex="1">
                    <mxGeometry x="170" y="250" width="80" height="80" as="geometry"/>
                </mxCell>
                <mxCell id="17" value="Quad processor" style="rounded=0;whiteSpace=wrap;html=1;align=center;fillColor=#6d8764;strokeColor=#3A5431;fontColor=#ffffff;" parent="1" vertex="1">
                    <mxGeometry x="260" y="170" width="120" height="60" as="geometry"/>
                </mxCell>
                <mxCell id="18" value="Debug?" style="rounded=0;whiteSpace=wrap;html=1;align=center;fillColor=#647687;strokeColor=#314354;fontColor=#ffffff;" parent="1" vertex="1">
                    <mxGeometry x="260" y="260" width="120" height="60" as="geometry"/>
                </mxCell>
                <mxCell id="26" style="edgeStyle=orthogonalEdgeStyle;rounded=0;orthogonalLoop=1;jettySize=auto;html=1;exitX=0.5;exitY=1;exitDx=0;exitDy=0;exitPerimeter=0;entryX=0.5;entryY=0;entryDx=0;entryDy=0;entryPerimeter=0;" parent="1" source="24" target="25" edge="1">
                    <mxGeometry relative="1" as="geometry"/>
                </mxCell>
                <mxCell id="24" value="X&amp;nbsp; Y&amp;nbsp; Z" style="shape=card;whiteSpace=wrap;html=1;fillColor=#6d8764;align=center;size=20;strokeColor=#3A5431;fontColor=#ffffff;" parent="1" vertex="1">
                    <mxGeometry x="400" y="170" width="120" height="60" as="geometry"/>
                </mxCell>
                <mxCell id="47" style="edgeStyle=orthogonalEdgeStyle;rounded=0;orthogonalLoop=1;jettySize=auto;html=1;exitX=1;exitY=0.5;exitDx=0;exitDy=0;exitPerimeter=0;entryX=0.25;entryY=0;entryDx=0;entryDy=0;" parent="1" source="25" target="40" edge="1">
                    <mxGeometry relative="1" as="geometry">
                        <Array as="points">
                            <mxPoint x="560" y="290"/>
                            <mxPoint x="560" y="90"/>
                            <mxPoint x="800" y="90"/>
                        </Array>
                    </mxGeometry>
                </mxCell>
                <mxCell id="93" style="edgeStyle=orthogonalEdgeStyle;rounded=0;orthogonalLoop=1;jettySize=auto;html=1;exitX=1;exitY=0.5;exitDx=0;exitDy=0;exitPerimeter=0;entryX=0;entryY=0.25;entryDx=0;entryDy=0;startArrow=none;startFill=0;" parent="1" source="25" target="63" edge="1">
                    <mxGeometry relative="1" as="geometry">
                        <Array as="points">
                            <mxPoint x="560" y="290"/>
                            <mxPoint x="560" y="425"/>
                        </Array>
                    </mxGeometry>
                </mxCell>
                <mxCell id="25" value="X&amp;nbsp; Y&amp;nbsp; Z" style="shape=card;whiteSpace=wrap;html=1;fillColor=#6d8764;align=center;size=20;strokeColor=#3A5431;fontColor=#ffffff;" parent="1" vertex="1">
                    <mxGeometry x="400" y="260" width="120" height="60" as="geometry"/>
                </mxCell>
                <mxCell id="28" value="&amp;nbsp;ISANv2 QUAD (LEFT)&lt;br&gt;" style="rounded=0;whiteSpace=wrap;html=1;align=left;verticalAlign=top;dashed=1;strokeWidth=2;fillColor=none;fontColor=#FFFFFF;" parent="1" vertex="1">
                    <mxGeometry x="70" y="370" width="460" height="210" as="geometry"/>
                </mxCell>
                <mxCell id="29" value="Receiver A" style="ellipse;whiteSpace=wrap;html=1;aspect=fixed;align=center;fillColor=#6d8764;strokeColor=#3A5431;fontColor=#ffffff;" parent="1" vertex="1">
                    <mxGeometry x="80" y="400" width="80" height="80" as="geometry"/>
                </mxCell>
                <mxCell id="30" value="Receiver B" style="ellipse;whiteSpace=wrap;html=1;aspect=fixed;align=center;fillColor=#6d8764;strokeColor=#3A5431;fontColor=#ffffff;" parent="1" vertex="1">
                    <mxGeometry x="170" y="400" width="80" height="80" as="geometry"/>
                </mxCell>
                <mxCell id="31" value="Receiver C" style="ellipse;whiteSpace=wrap;html=1;aspect=fixed;align=center;fillColor=#6d8764;strokeColor=#3A5431;fontColor=#ffffff;" parent="1" vertex="1">
                    <mxGeometry x="80" y="490" width="80" height="80" as="geometry"/>
                </mxCell>
                <mxCell id="32" value="Receiver D" style="ellipse;whiteSpace=wrap;html=1;aspect=fixed;align=center;fillColor=#6d8764;strokeColor=#3A5431;fontColor=#ffffff;" parent="1" vertex="1">
                    <mxGeometry x="170" y="490" width="80" height="80" as="geometry"/>
                </mxCell>
                <mxCell id="33" value="Quad processor" style="rounded=0;whiteSpace=wrap;html=1;align=center;fillColor=#6d8764;strokeColor=#3A5431;fontColor=#ffffff;" parent="1" vertex="1">
                    <mxGeometry x="260" y="410" width="120" height="60" as="geometry"/>
                </mxCell>
                <mxCell id="34" value="Debug?" style="rounded=0;whiteSpace=wrap;html=1;align=center;fillColor=#647687;strokeColor=#314354;fontColor=#ffffff;" parent="1" vertex="1">
                    <mxGeometry x="260" y="500" width="120" height="60" as="geometry"/>
                </mxCell>
                <mxCell id="35" style="edgeStyle=orthogonalEdgeStyle;rounded=0;orthogonalLoop=1;jettySize=auto;html=1;exitX=0.5;exitY=1;exitDx=0;exitDy=0;exitPerimeter=0;entryX=0.5;entryY=0;entryDx=0;entryDy=0;entryPerimeter=0;" parent="1" source="36" target="37" edge="1">
                    <mxGeometry relative="1" as="geometry"/>
                </mxCell>
                <mxCell id="36" value="X&amp;nbsp; Y&amp;nbsp; Z" style="shape=card;whiteSpace=wrap;html=1;fillColor=#6d8764;align=center;size=20;strokeColor=#3A5431;fontColor=#ffffff;" parent="1" vertex="1">
                    <mxGeometry x="400" y="410" width="120" height="60" as="geometry"/>
                </mxCell>
                <mxCell id="48" style="edgeStyle=orthogonalEdgeStyle;rounded=0;orthogonalLoop=1;jettySize=auto;html=1;exitX=1;exitY=0.5;exitDx=0;exitDy=0;exitPerimeter=0;entryX=0.75;entryY=0;entryDx=0;entryDy=0;" parent="1" source="37" target="40" edge="1">
                    <mxGeometry relative="1" as="geometry">
                        <Array as="points">
                            <mxPoint x="580" y="530"/>
                            <mxPoint x="580" y="110"/>
                            <mxPoint x="860" y="110"/>
                        </Array>
                    </mxGeometry>
                </mxCell>
                <mxCell id="92" style="edgeStyle=orthogonalEdgeStyle;rounded=0;orthogonalLoop=1;jettySize=auto;html=1;exitX=1;exitY=0.5;exitDx=0;exitDy=0;exitPerimeter=0;entryX=0;entryY=0.75;entryDx=0;entryDy=0;startArrow=none;startFill=0;" parent="1" source="37" target="63" edge="1">
                    <mxGeometry relative="1" as="geometry">
                        <Array as="points">
                            <mxPoint x="580" y="530"/>
                            <mxPoint x="580" y="455"/>
                        </Array>
                    </mxGeometry>
                </mxCell>
                <mxCell id="37" value="I&amp;nbsp; J&amp;nbsp; K" style="shape=card;whiteSpace=wrap;html=1;fillColor=#6d8764;align=center;size=20;strokeColor=#3A5431;fontColor=#ffffff;" parent="1" vertex="1">
                    <mxGeometry x="400" y="500" width="120" height="60" as="geometry"/>
                </mxCell>
                <mxCell id="38" value="&amp;nbsp;INTERFACE" style="rounded=0;whiteSpace=wrap;html=1;align=left;verticalAlign=top;dashed=1;fillColor=none;fontColor=#FFFFFF;" parent="1" vertex="1">
                    <mxGeometry x="620" y="130" width="420" height="200" as="geometry"/>
                </mxCell>
                <mxCell id="56" style="edgeStyle=orthogonalEdgeStyle;rounded=0;orthogonalLoop=1;jettySize=auto;html=1;exitX=0.5;exitY=1;exitDx=0;exitDy=0;entryX=0.5;entryY=0;entryDx=0;entryDy=0;" parent="1" source="39" target="55" edge="1">
                    <mxGeometry relative="1" as="geometry">
                        <Array as="points">
                            <mxPoint x="690" y="240"/>
                            <mxPoint x="830" y="240"/>
                        </Array>
                    </mxGeometry>
                </mxCell>
                <mxCell id="39" value="Endo Interface Device (EID)" style="rounded=0;whiteSpace=wrap;html=1;align=center;fillColor=#6d8764;fontColor=#ffffff;" parent="1" vertex="1">
                    <mxGeometry x="630" y="170" width="120" height="60" as="geometry"/>
                </mxCell>
                <mxCell id="46" style="edgeStyle=orthogonalEdgeStyle;rounded=0;orthogonalLoop=1;jettySize=auto;html=1;exitX=0;exitY=0.5;exitDx=0;exitDy=0;entryX=1;entryY=0.5;entryDx=0;entryDy=0;" parent="1" source="40" target="39" edge="1">
                    <mxGeometry relative="1" as="geometry"/>
                </mxCell>
                <mxCell id="40" value="Main Display Driver (DD)" style="rounded=0;whiteSpace=wrap;html=1;align=center;fillColor=#6d8764;strokeColor=#3A5431;fontColor=#ffffff;" parent="1" vertex="1">
                    <mxGeometry x="770" y="170" width="120" height="60" as="geometry"/>
                </mxCell>
                <mxCell id="49" value="&amp;nbsp;AUTOPILOT" style="rounded=0;whiteSpace=wrap;html=1;align=left;verticalAlign=top;dashed=1;fillColor=none;fontColor=#FFFFFF;" parent="1" vertex="1">
                    <mxGeometry x="620" y="370" width="420" height="210" as="geometry"/>
                </mxCell>
                <mxCell id="50" value="Waypoint List &amp;amp; Special ETA" style="rounded=0;whiteSpace=wrap;html=1;align=center;" parent="1" vertex="1">
                    <mxGeometry x="910" y="170" width="120" height="60" as="geometry"/>
                </mxCell>
                <mxCell id="59" style="edgeStyle=orthogonalEdgeStyle;rounded=0;orthogonalLoop=1;jettySize=auto;html=1;exitX=1;exitY=0.5;exitDx=0;exitDy=0;entryX=0;entryY=0.5;entryDx=0;entryDy=0;" parent="1" source="54" target="55" edge="1">
                    <mxGeometry relative="1" as="geometry"/>
                </mxCell>
                <mxCell id="54" value="Endo Interface Device 2 (EID2)" style="rounded=0;whiteSpace=wrap;html=1;align=center;fillColor=#6d8764;fontColor=#ffffff;" parent="1" vertex="1">
                    <mxGeometry x="630" y="260" width="120" height="60" as="geometry"/>
                </mxCell>
                <mxCell id="83" style="edgeStyle=orthogonalEdgeStyle;rounded=0;orthogonalLoop=1;jettySize=auto;html=1;exitX=0.25;exitY=1;exitDx=0;exitDy=0;entryX=0.75;entryY=0;entryDx=0;entryDy=0;startArrow=none;startFill=0;" parent="1" source="55" target="63" edge="1">
                    <mxGeometry relative="1" as="geometry">
                        <Array as="points">
                            <mxPoint x="800" y="350"/>
                            <mxPoint x="720" y="350"/>
                        </Array>
                    </mxGeometry>
                </mxCell>
                <mxCell id="55" value="Command Interpreter" style="rounded=0;whiteSpace=wrap;html=1;align=center;fillColor=#fa6800;strokeColor=#C73500;fontColor=#ffffff;" parent="1" vertex="1">
                    <mxGeometry x="770" y="260" width="120" height="60" as="geometry"/>
                </mxCell>
                <mxCell id="82" style="edgeStyle=orthogonalEdgeStyle;rounded=0;orthogonalLoop=1;jettySize=auto;html=1;exitX=0.5;exitY=1;exitDx=0;exitDy=0;entryX=0.5;entryY=0;entryDx=0;entryDy=0;startArrow=classic;startFill=1;" parent="1" source="60" target="68" edge="1">
                    <mxGeometry relative="1" as="geometry">
                        <Array as="points">
                            <mxPoint x="970" y="340"/>
                            <mxPoint x="830" y="340"/>
                        </Array>
                    </mxGeometry>
                </mxCell>
                <mxCell id="60" value="Flight Path Interface" style="rounded=0;whiteSpace=wrap;html=1;align=center;" parent="1" vertex="1">
                    <mxGeometry x="910" y="260" width="120" height="60" as="geometry"/>
                </mxCell>
                <mxCell id="63" value="AP Main" style="rounded=0;whiteSpace=wrap;html=1;align=center;fillColor=#6d8764;strokeColor=#3A5431;fontColor=#ffffff;" parent="1" vertex="1">
                    <mxGeometry x="630" y="410" width="120" height="60" as="geometry"/>
                </mxCell>
                <mxCell id="66" value="&amp;nbsp;COMPASS&lt;br&gt;" style="rounded=0;whiteSpace=wrap;html=1;align=left;verticalAlign=top;dashed=1;fillColor=none;fontColor=#FFFFFF;" parent="1" vertex="1">
                    <mxGeometry x="1080" y="130" width="290" height="200" as="geometry"/>
                </mxCell>
                <mxCell id="67" value="Compass" style="rounded=0;whiteSpace=wrap;html=1;align=center;fillColor=#fa6800;strokeColor=#C73500;fontColor=#ffffff;" parent="1" vertex="1">
                    <mxGeometry x="1090" y="170" width="120" height="60" as="geometry"/>
                </mxCell>
                <mxCell id="88" style="edgeStyle=orthogonalEdgeStyle;rounded=0;orthogonalLoop=1;jettySize=auto;html=1;exitX=0.75;exitY=0;exitDx=0;exitDy=0;entryX=0.5;entryY=0;entryDx=0;entryDy=0;entryPerimeter=0;startArrow=none;startFill=0;" parent="1" source="68" target="74" edge="1">
                    <mxGeometry relative="1" as="geometry">
                        <Array as="points">
                            <mxPoint x="860" y="380"/>
                            <mxPoint x="970" y="380"/>
                        </Array>
                    </mxGeometry>
                </mxCell>
                <mxCell id="68" value="Flight Path Manager" style="rounded=0;whiteSpace=wrap;html=1;align=center;" parent="1" vertex="1">
                    <mxGeometry x="770" y="410" width="120" height="60" as="geometry"/>
                </mxCell>
                <mxCell id="69" value="&amp;nbsp;WAYPOINT STORE" style="rounded=0;whiteSpace=wrap;html=1;align=left;verticalAlign=top;dashed=1;fillColor=none;fontColor=#FFFFFF;" parent="1" vertex="1">
                    <mxGeometry x="1080" y="370" width="290" height="210" as="geometry"/>
                </mxCell>
                <mxCell id="80" style="edgeStyle=orthogonalEdgeStyle;rounded=0;orthogonalLoop=1;jettySize=auto;html=1;exitX=1;exitY=0.5;exitDx=0;exitDy=0;entryX=0;entryY=0.5;entryDx=0;entryDy=0;startArrow=classic;startFill=1;" parent="1" source="70" target="71" edge="1">
                    <mxGeometry relative="1" as="geometry"/>
                </mxCell>
                <mxCell id="70" value="Waypoint Interface" style="rounded=0;whiteSpace=wrap;html=1;align=center;fillColor=#6d8764;strokeColor=#3A5431;fontColor=#ffffff;" parent="1" vertex="1">
                    <mxGeometry x="1090" y="410" width="120" height="60" as="geometry"/>
                </mxCell>
                <mxCell id="79" style="edgeStyle=orthogonalEdgeStyle;rounded=0;orthogonalLoop=1;jettySize=auto;html=1;exitX=0.5;exitY=1;exitDx=0;exitDy=0;entryX=0.5;entryY=0;entryDx=0;entryDy=0;startArrow=classic;startFill=1;" parent="1" source="71" target="75" edge="1">
                    <mxGeometry relative="1" as="geometry"/>
                </mxCell>
                <mxCell id="81" style="edgeStyle=orthogonalEdgeStyle;rounded=0;orthogonalLoop=1;jettySize=auto;html=1;exitX=0.5;exitY=0;exitDx=0;exitDy=0;entryX=0.5;entryY=0;entryDx=0;entryDy=0;entryPerimeter=0;startArrow=none;startFill=0;" parent="1" source="71" target="74" edge="1">
                    <mxGeometry relative="1" as="geometry">
                        <Array as="points">
                            <mxPoint x="1301" y="360"/>
                            <mxPoint x="970" y="360"/>
                        </Array>
                    </mxGeometry>
                </mxCell>
                <mxCell id="71" value="Waypoint Parser" style="rounded=0;whiteSpace=wrap;html=1;align=center;fillColor=#6d8764;strokeColor=#3A5431;fontColor=#ffffff;" parent="1" vertex="1">
                    <mxGeometry x="1241" y="410" width="120" height="60" as="geometry"/>
                </mxCell>
                <mxCell id="76" style="edgeStyle=orthogonalEdgeStyle;rounded=0;orthogonalLoop=1;jettySize=auto;html=1;exitX=1;exitY=0.5;exitDx=0;exitDy=0;exitPerimeter=0;entryX=0;entryY=0.5;entryDx=0;entryDy=0;startArrow=classic;startFill=1;" parent="1" source="72" target="75" edge="1">
                    <mxGeometry relative="1" as="geometry"/>
                </mxCell>
                <mxCell id="72" value="Hard store (x2)" style="shape=card;whiteSpace=wrap;html=1;align=center;size=20;" parent="1" vertex="1">
                    <mxGeometry x="1090" y="490" width="119" height="60" as="geometry"/>
                </mxCell>
                <mxCell id="86" style="edgeStyle=orthogonalEdgeStyle;rounded=0;orthogonalLoop=1;jettySize=auto;html=1;exitX=0.5;exitY=1;exitDx=0;exitDy=0;exitPerimeter=0;entryX=0.5;entryY=1;entryDx=0;entryDy=0;startArrow=none;startFill=0;" parent="1" source="74" target="63" edge="1">
                    <mxGeometry relative="1" as="geometry"/>
                </mxCell>
                <mxCell id="74" value="DX&amp;nbsp; DY&amp;nbsp; DZ" style="shape=card;whiteSpace=wrap;html=1;align=center;size=20;" parent="1" vertex="1">
                    <mxGeometry x="910" y="410" width="119" height="60" as="geometry"/>
                </mxCell>
                <mxCell id="75" value="HS Interface?" style="rounded=0;whiteSpace=wrap;html=1;align=center;fillColor=#647687;strokeColor=#314354;fontColor=#ffffff;" parent="1" vertex="1">
                    <mxGeometry x="1241" y="490" width="120" height="60" as="geometry"/>
                </mxCell>
                <mxCell id="85" value="Coprocessor ?" style="rounded=0;whiteSpace=wrap;html=1;align=center;fillColor=#647687;strokeColor=#314354;fontColor=#ffffff;" parent="1" vertex="1">
                    <mxGeometry x="1089" y="250" width="120" height="60" as="geometry"/>
                </mxCell>
                <mxCell id="89" value="&amp;nbsp; HELP MENU" style="rounded=0;whiteSpace=wrap;html=1;align=left;verticalAlign=top;dashed=1;fillColor=none;fontColor=#FFFFFF;" parent="1" vertex="1">
                    <mxGeometry x="1080" y="-100" width="290" height="200" as="geometry"/>
                </mxCell>
                <mxCell id="90" value="Help mgr" style="rounded=0;whiteSpace=wrap;html=1;align=center;" parent="1" vertex="1">
                    <mxGeometry x="1090" y="-60" width="120" height="60" as="geometry"/>
                </mxCell>
                <mxCell id="91" value="Help mgr 2?" style="rounded=0;whiteSpace=wrap;html=1;align=center;fillColor=#647687;strokeColor=#314354;fontColor=#ffffff;" parent="1" vertex="1">
                    <mxGeometry x="1090" y="20" width="120" height="60" as="geometry"/>
                </mxCell>
            </root>
        </mxGraphModel>
    </diagram>
</mxfile>